{
  "accessors": [
    {
      "bufferView": 2,
      "componentType": 5126,
      "count": 65532,
      "max": [
        46.528621673583984,
        0.23362299799919128,
        34.094795227050781
      ],
      "min": [
        -60.974796295166016,
        -119.72947692871094,
        -57.566238403320312
      ],
      "type": "VEC3"
    },
    {
      "bufferView": 2,
      "byteOffset": 786384,
      "componentType": 5126,
      "count": 65532,
      "max": [
        0.99986708164215088,
        1,
        0.99995827674865723
      ],
      "min": [
        -0.99999266862869263,
        -0.99997669458389282,
        -0.99998623132705688
      ],
      "type": "VEC3"
    },
    {
      "bufferView": 1,
      "componentType": 5126,
      "count": 65532,
      "max": [
        0.97672498226165771,
        0.95314997434616089
      ],
      "min": [
        0.059308998286724091,
        0.0019630000460892916
      ],
      "type": "VEC2"
    },
    {
      "bufferView": 0,
      "componentType": 5125,
      "count": 302529,
      "max": [
        65531
      ],
      "min": [
        0
      ],
      "type": "SCALAR"
    },
    {
      "bufferView": 2,
      "byteOffset": 1572768,
      "componentType": 5126,
      "count": 65532,
      "max": [
        62.057357788085938,
        0.22755900025367737,
        34.026611328125
      ],
      "min": [
        -60.930088043212891,
        -119.84181213378906,
        -62.108509063720703
      ],
      "type": "VEC3"
    },
    {
      "bufferView": 2,
      "byteOffset": 2359152,
      "componentType": 5126,
      "count": 65532,
      "max": [
        0.99995428323745728,
        1,
        0.99998480081558228
      ],
      "min": [
        -0.99999362230300903,
        -0.99998563528060913,
        -0.99996763467788696
      ],
      "type": "VEC3"
    },
    {
      "bufferView": 1,
      "byteOffset": 524256,
      "componentType": 5126,
      "count": 65532,
      "max": [
        0.99788397550582886,
        0.98724502325057983
      ],
      "min": [
        0.0097749996930360794,
        0.011172999627888203
      ],
      "type": "VEC2"
    },
    {
      "bufferView": 0,
      "byteOffset": 1210116,
      "componentType": 5125,
      "count": 300831,
      "max": [
        65531
      ],
      "min": [
        0
      ],
      "type": "SCALAR"
    },
    {
      "bufferView": 2,
      "byteOffset": 3145536,
      "componentType": 5126,
      "count": 65533,
      "max": [
        62.103675842285156,
        0.30414900183677673,
        32.796985626220703
      ],
      "min": [
        -60.844985961914062,
        -119.24748992919922,
        -62.108509063720703
      ],
      "type": "VEC3"
    },
    {
      "bufferView": 2,
      "byteOffset": 3931932,
      "componentType": 5126,
      "count": 65533,
      "max": [
        0.99994874000549316,
        1,
        0.9999890923500061
      ],
      "min": [
        -0.99996364116668701,
        -0.9998549222946167,
        -0.99987822771072388
      ],
      "type": "VEC3"
    },
    {
      "bufferView": 1,
      "byteOffset": 1048512,
      "componentType": 5126,
      "count": 65533,
      "max": [
        0.99543702602386475,
        0.99821799993515015
      ],
      "min": [
        0.012233000248670578,
        0.0017819999484345317
      ],
      "type": "VEC2"
    },
    {
      "bufferView": 0,
      "byteOffset": 2413440,
      "componentType": 5125,
      "count": 298473,
      "max": [
        65532
      ],
      "min": [
        0
      ],
      "type": "SCALAR"
    },
    {
      "bufferView": 2,
      "byteOffset": 4718328,
      "componentType": 5126,
      "count": 65532,
      "max": [
        62.103675842285156,
        0.14323200285434723,
        33.186985015869141
      ],
      "min": [
        -60.686637878417969,
        -119.49700164794922,
        -61.30560302734375
      ],
      "type": "VEC3"
    },
    {
      "bufferView": 2,
      "byteOffset": 5504712,
      "componentType": 5126,
      "count": 65532,
      "max": [
        0.99989038705825806,
        1,
        0.99995827674865723
      ],
      "min": [
        -0.99998760223388672,
        -0.99992185831069946,
        -0.99999648332595825
      ],
      "type": "VEC3"
    },
    {
      "bufferView": 1,
      "byteOffset": 1572776,
      "componentType": 5126,
      "count": 65532,
      "max": [
        0.99520701169967651,
        0.98070597648620605
      ],
      "min": [
        0.01614299975335598,
        0.0019030000548809767
      ],
      "type": "VEC2"
    },
    {
      "bufferView": 0,
      "byteOffset": 3607332,
      "componentType": 5125,
      "count": 274179,
      "max": [
        65531
      ],
      "min": [
        0
      ],
      "type": "SCALAR"
    },
    {
      "bufferView": 2,
      "byteOffset": 6291096,
      "componentType": 5126,
      "count": 65532,
      "max": [
        62.041164398193359,
        0.24898800253868103,
        32.992137908935547
      ],
      "min": [
        -60.688831329345703,
        -118.92020416259766,
        -61.546520233154297
      ],
      "type": "VEC3"
    },
    {
      "bufferView": 2,
      "byteOffset": 7077480,
      "componentType": 5126,
      "count": 65532,
      "max": [
        0.99998998641967773,
        1,
        0.99999481439590454
      ],
      "min": [
        -0.99998670816421509,
        -0.99997901916503906,
        -0.99996989965438843
      ],
      "type": "VEC3"
    },
    {
      "bufferView": 1,
      "byteOffset": 2097032,
      "componentType": 5126,
      "count": 65532,
      "max": [
        0.9959220290184021,
        0.97294598817825317
      ],
      "min": [
        0.0021679999772459269,
        0.0032110000029206276
      ],
      "type": "VEC2"
    },
    {
      "bufferView": 0,
      "byteOffset": 4704048,
      "componentType": 5125,
      "count": 270984,
      "max": [
        65531
      ],
      "min": [
        0
      ],
      "type": "SCALAR"
    },
    {
      "bufferView": 2,
      "byteOffset": 7863864,
      "componentType": 5126,
      "count": 65532,
      "max": [
        61.534538269042969,
        0.27753201127052307,
        33.502704620361328
      ],
      "min": [
        -60.685890197753906,
        -118.77334594726562,
        -62.099246978759766
      ],
      "type": "VEC3"
    },
    {
      "bufferView": 2,
      "byteOffset": 8650248,
      "componentType": 5126,
      "count": 65532,
      "max": [
        0.99998998641967773,
        1,
        0.99999123811721802
      ],
      "min": [
        -0.99999266862869263,
        -0.99997103214263916,
        -0.99992936849594116
      ],
      "type": "VEC3"
    },
    {
      "bufferView": 1,
      "byteOffset": 2621288,
      "componentType": 5126,
      "count": 65532,
      "max": [
        0.99703800678253174,
        0.98411500453948975
      ],
      "min": [
        0.0021160000469535589,
        0.0026889999862760305
      ],
      "type": "VEC2"
    },
    {
      "bufferView": 0,
      "byteOffset": 5787984,
      "componentType": 5125,
      "count": 261612,
      "max": [
        65531
      ],
      "min": [
        0
      ],
      "type": "SCALAR"
    },
    {
      "bufferView": 2,
      "byteOffset": 9436632,
      "componentType": 5126,
      "count": 65533,
      "max": [
        60.73248291015625,
        0.30414900183677673,
        34.112220764160156
      ],
      "min": [
        -60.962032318115234,
        -119.72227478027344,
        -62.088729858398438
      ],
      "type": "VEC3"
    },
    {
      "bufferView": 2,
      "byteOffset": 10223028,
      "componentType": 5126,
      "count": 65533,
      "max": [
        0.99998462200164795,
        1,
        0.99999982118606567
      ],
      "min": [
        -0.99997907876968384,
        -0.99995291233062744,
        -0.99990248680114746
      ],
      "type": "VEC3"
    },
    {
      "bufferView": 1,
      "byteOffset": 3145544,
      "componentType": 5126,
      "count": 65533,
      "max": [
        0.99321699142456055,
        0.98115700483322144
      ],
      "min": [
        0.011731999926269054,
        0.0029619999695569277
      ],
      "type": "VEC2"
    },
    {
      "bufferView": 0,
      "byteOffset": 6834432,
      "componentType": 5125,
      "count": 257556,
      "max": [
        65532
      ],
      "min": [
        0
      ],
      "type": "SCALAR"
    },
    {
      "bufferView": 2,
      "byteOffset": 11009424,
      "componentType": 5126,
      "count": 14873,
      "max": [
        56.855377197265625,
        0.12114399671554565,
        33.661109924316406
      ],
      "min": [
        -58.664478302001953,
        -119.62358856201172,
        -62.108509063720703
      ],
      "type": "VEC3"
    },
    {
      "bufferView": 2,
      "byteOffset": 11187900,
      "componentType": 5126,
      "count": 14873,
      "max": [
        0.99978029727935791,
        0.99999970197677612,
        0.99993234872817993
      ],
      "min": [
        -0.99876964092254639,
        -0.99958348274230957,
        -0.99986451864242554
      ],
      "type": "VEC3"
    },
    {
      "bufferView": 1,
      "byteOffset": 3669808,
      "componentType": 5126,
      "count": 14873,
      "max": [
        0.99321597814559937,
        0.97372102737426758
      ],
      "min": [
        0.015599999576807022,
        0.0030479999259114265
      ],
      "type": "VEC2"
    },
    {
      "bufferView": 0,
      "byteOffset": 7864656,
      "componentType": 5125,
      "count": 37728,
      "max": [
        14872
      ],
      "min": [
        0
      ],
      "type": "SCALAR"
    }
  ],
  "asset": {
    "extras": {
      "author": "best-form.de (https://sketchfab.com/best-form.de)",
      "license": "CC-BY-NC-ND-4.0 (http://creativecommons.org/licenses/by-nc-nd/4.0/)",
      "source": "https://sketchfab.com/3d-models/einstein-0535c0c5d6d74fd59f6de2f398faf937",
      "title": "Einstein"
    },
    "generator": "Sketchfab-8.51.0",
    "version": "2.0"
  },
  "bufferViews": [
    {
      "buffer": 0,
      "byteLength": 8015568,
      "byteOffset": 0,
      "name": "floatBufferViews",
      "target": 34963
    },
    {
      "buffer": 0,
      "byteLength": 3788792,
      "byteOffset": 8015568,
      "byteStride": 8,
      "name": "floatBufferViews",
      "target": 34962
    },
    {
      "buffer": 0,
      "byteLength": 11366376,
      "byteOffset": 11804360,
      "byteStride": 12,
      "name": "floatBufferViews",
      "target": 34962
    }
  ],
  "buffers": [
    {
      "byteLength": 23170736,
      "uri": "scene.bin"
    }
  ],
  "images": [
    {
      "uri": "textures/texture_baseColor.jpeg"
    }
  ],
  "materials": [
    {
      "doubleSided": true,
      "name": "texture",
      "pbrMetallicRoughness": {
        "baseColorFactor": [
          1,
          1,
          1,
          1
        ],
        "baseColorTexture": {
          "index": 0,
          "texCoord": 0
        },
        "metallicFactor": 0.24077572612642492,
        "roughnessFactor": 0.59297698398806009
      }
    }
  ],
  "meshes": [
    {
      "primitives": [
        {
          "attributes": {
            "NORMAL": 1,
            "POSITION": 0,
            "TEXCOORD_0": 2
          },
          "indices": 3,
          "material": 0,
          "mode": 4
        }
      ]
    },
    {
      "primitives": [
        {
          "attributes": {
            "NORMAL": 5,
            "POSITION": 4,
            "TEXCOORD_0": 6
          },
          "indices": 7,
          "material": 0,
          "mode": 4
        }
      ]
    },
    {
      "primitives": [
        {
          "attributes": {
            "NORMAL": 9,
            "POSITION": 8,
            "TEXCOORD_0": 10
          },
          "indices": 11,
          "material": 0,
          "mode": 4
        }
      ]
    },
    {
      "primitives": [
        {
          "attributes": {
            "NORMAL": 13,
            "POSITION": 12,
            "TEXCOORD_0": 14
          },
          "indices": 15,
          "material": 0,
          "mode": 4
        }
      ]
    },
    {
      "primitives": [
        {
          "attributes": {
            "NORMAL": 17,
            "POSITION": 16,
            "TEXCOORD_0": 18
          },
          "indices": 19,
          "material": 0,
          "mode": 4
        }
      ]
    },
    {
      "primitives": [
        {
          "attributes": {
            "NORMAL": 21,
            "POSITION": 20,
            "TEXCOORD_0": 22
          },
          "indices": 23,
          "material": 0,
          "mode": 4
        }
      ]
    },
    {
      "primitives": [
        {
          "attributes": {
            "NORMAL": 25,
            "POSITION": 24,
            "TEXCOORD_0": 26
          },
          "indices": 27,
          "material": 0,
          "mode": 4
        }
      ]
    },
    {
      "primitives": [
        {
          "attributes": {
            "NORMAL": 29,
            "POSITION": 28,
            "TEXCOORD_0": 30
          },
          "indices": 31,
          "material": 0,
          "mode": 4
        }
      ]
    }
  ],
  "nodes": [
    {
      "children": [
        1
      ],
      "name": "RootNode (gltf orientation matrix)",
      "rotation": [
        -0.70710678118654746,
        -0,
        -0,
        0.70710678118654757
      ]
    },
    {
      "children": [
        2
      ],
      "matrix": [
        1,
        0,
        0,
        0,
        0,
        2.2204460492503131e-16,
        -1,
        0,
        0,
        1,
        2.2204460492503131e-16,
        0,
        0,
        -45.770759582519531,
        -73.767143249511719,
        1
      ],
      "name": "RootNode (model correction matrix)"
    },
    {
      "children": [
        3,
        4,
        5,
        6,
        7,
        8,
        9,
        10
      ],
      "name": "Einstein-50mb-v3.obj.cleaner.materialmerger.gles"
    },
    {
      "mesh": 0,
      "name": ""
    },
    {
      "mesh": 1,
      "name": ""
    },
    {
      "mesh": 2,
      "name": ""
    },
    {
      "mesh": 3,
      "name": ""
    },
    {
      "mesh": 4,
      "name": ""
    },
    {
      "mesh": 5,
      "name": ""
    },
    {
      "mesh": 6,
      "name": ""
    },
    {
      "mesh": 7,
      "name": ""
    }
  ],
  "samplers": [
    {
      "magFilter": 9729,
      "minFilter": 9987,
      "wrapS": 10497,
      "wrapT": 10497
    }
  ],
  "scene": 0,
  "scenes": [
    {
      "name": "OSG_Scene",
      "nodes": [
        0
      ]
    }
  ],
  "textures": [
    {
      "sampler": 0,
      "source": 0
    }
  ]
}

